<svg id="Layer_1" data-name="Layer 1" xmlns="http://www.w3.org/2000/svg" viewBox="0 0 512 512"><defs><style>.cls-1{fill:#79d3d3;}.cls-2{fill:#141f38;}.cls-3{fill:#f4607f;}</style></defs><title>solar_system_style_3</title><path class="cls-1" d="M473.6,281.6A25.6,25.6,0,1,1,499.2,256,25.62,25.62,0,0,1,473.6,281.6Z"/><path class="cls-2" d="M483.59,218.92C465.74,102.2,364.91,12.8,243.2,12.8,108.88,12.8,0,121.68,0,256S108.88,499.2,243.2,499.2c121.71,0,222.54-89.4,240.39-206.12a38.4,38.4,0,0,0,0-74.16ZM243.2,473.6C123.21,473.6,25.6,376,25.6,256S123.21,38.4,243.2,38.4c108,0,198,79.15,214.77,182.52a38.41,38.41,0,0,0,0,70.16C441.15,394.45,351.25,473.6,243.2,473.6ZM473.6,268.8A12.8,12.8,0,1,1,486.4,256,12.81,12.81,0,0,1,473.6,268.8Z"/><path class="cls-1" d="M153.6,179.2a25.6,25.6,0,1,1,25.6-25.6A25.62,25.62,0,0,1,153.6,179.2Z"/><path class="cls-2" d="M243.2,102.4A152.85,152.85,0,0,0,172,119.88a38.41,38.41,0,0,0-54.23,47.48,153.61,153.61,0,1,0,125.46-65ZM140.8,153.6a12.8,12.8,0,0,1,25.6,0v0a12.81,12.81,0,0,1-12.8,12.8,11.65,11.65,0,0,1-1.68-.12A12.79,12.79,0,0,1,140.8,153.6ZM333.71,346.51A128,128,0,0,1,135.16,187.28a38.42,38.42,0,0,0,54.28-47.51A128,128,0,0,1,333.71,346.51Z"/><path class="cls-3" d="M243.2,307.2A51.2,51.2,0,1,1,294.4,256,51.26,51.26,0,0,1,243.2,307.2Z"/><path class="cls-2" d="M243.2,217.6h0A38.4,38.4,0,1,1,204.8,256a38.15,38.15,0,0,1,38.4-38.4m0-25.6a64,64,0,1,0,64,64,64,64,0,0,0-64-64Z"/><circle class="cls-2" cx="467.2" cy="44.8" r="19.2"/><circle class="cls-2" cx="38.4" cy="473.6" r="12.8"/></svg>